<svg xmlns="http://www.w3.org/2000/svg" viewBox="0 0 1440 320"><path fill="#000" fill-opacity="1" d="M0,192L26.7,186.7C53.3,181,107,171,160,160C213.3,149,267,139,320,133.3C373.3,128,427,128,480,117.3C533.3,107,587,85,640,101.3C693.3,117,747,171,800,208C853.3,245,907,267,960,277.3C1013.3,288,1067,288,1120,250.7C1173.3,213,1227,139,1280,90.7C1333.3,43,1387,21,1413,10.7L1440,0L1440,320L1413.3,320C1386.7,320,1333,320,1280,320C1226.7,320,1173,320,1120,320C1066.7,320,1013,320,960,320C906.7,320,853,320,800,320C746.7,320,693,320,640,320C586.7,320,533,320,480,320C426.7,320,373,320,320,320C266.7,320,213,320,160,320C106.7,320,53,320,27,320L0,320Z"></path></svg>