<svg xmlns="http://www.w3.org/2000/svg" viewBox="0 0 1440 320"><path fill="rgba(0, 0, 0, 0.33)" fill-opacity="1" d="M0,192L11.4,176C22.9,160,46,128,69,144C91.4,160,114,224,137,213.3C160,203,183,117,206,106.7C228.6,96,251,160,274,197.3C297.1,235,320,245,343,245.3C365.7,245,389,235,411,213.3C434.3,192,457,160,480,154.7C502.9,149,526,171,549,160C571.4,149,594,107,617,101.3C640,96,663,128,686,133.3C708.6,139,731,117,754,138.7C777.1,160,800,224,823,250.7C845.7,277,869,267,891,250.7C914.3,235,937,213,960,197.3C982.9,181,1006,171,1029,181.3C1051.4,192,1074,224,1097,202.7C1120,181,1143,107,1166,64C1188.6,21,1211,11,1234,37.3C1257.1,64,1280,128,1303,149.3C1325.7,171,1349,149,1371,144C1394.3,139,1417,149,1429,154.7L1440,160L1440,320L1428.6,320C1417.1,320,1394,320,1371,320C1348.6,320,1326,320,1303,320C1280,320,1257,320,1234,320C1211.4,320,1189,320,1166,320C1142.9,320,1120,320,1097,320C1074.3,320,1051,320,1029,320C1005.7,320,983,320,960,320C937.1,320,914,320,891,320C868.6,320,846,320,823,320C800,320,777,320,754,320C731.4,320,709,320,686,320C662.9,320,640,320,617,320C594.3,320,571,320,549,320C525.7,320,503,320,480,320C457.1,320,434,320,411,320C388.6,320,366,320,343,320C320,320,297,320,274,320C251.4,320,229,320,206,320C182.9,320,160,320,137,320C114.3,320,91,320,69,320C45.7,320,23,320,11,320L0,320Z"></path></svg>